REM DIRINDEX 1\2,1\4,1\3\5,1\3\6,1\3\7
REM DIRNAME cjc082,folder01,folder02,folder03,folder04,folder05,folder06
TITLE ""
FILE "CD1Track56.mp3" MP3
  TRACK 01 AUDIO
    TITLE "0:"
    INDEX 01 00:00:00
  TRACK 02 AUDIO
    TITLE "5:cjc082_1040"
    INDEX 01 00:00:29
  TRACK 03 AUDIO
    TITLE "0:"
    INDEX 01 00:01:69
  TRACK 04 AUDIO
    TITLE "6:cjc082_1041"
    INDEX 01 00:02:43
  TRACK 05 AUDIO
    TITLE "0:"
    INDEX 01 00:03:64
  TRACK 06 AUDIO
    TITLE "5:cjc082_1042"
    INDEX 01 00:04:36
  TRACK 07 AUDIO
    TITLE "0:"
    INDEX 01 00:06:04
  TRACK 08 AUDIO
    TITLE "6:cjc082_1043"
    INDEX 01 00:06:53
  TRACK 09 AUDIO
    TITLE "0:"
    INDEX 01 00:07:72
  TRACK 10 AUDIO
    TITLE "5:cjc082_1044"
    INDEX 01 00:08:42
  TRACK 11 AUDIO
    TITLE "0:"
    INDEX 01 00:09:69
  TRACK 12 AUDIO
    TITLE "6:cjc082_1045"
    INDEX 01 00:10:41
  TRACK 13 AUDIO
    TITLE "0:"
    INDEX 01 00:11:48
  TRACK 14 AUDIO
    TITLE "5:cjc082_1046"
    INDEX 01 00:12:18
  TRACK 15 AUDIO
    TITLE "0:"
    INDEX 01 00:13:51
  TRACK 16 AUDIO
    TITLE "6:cjc082_1047"
    INDEX 01 00:14:27
  TRACK 17 AUDIO
    TITLE "0:"
    INDEX 01 00:15:34
  TRACK 18 AUDIO
    TITLE "5:cjc082_1048"
    INDEX 01 00:16:10
  TRACK 19 AUDIO
    TITLE "0:"
    INDEX 01 00:17:18
  TRACK 20 AUDIO
    TITLE "6:cjc082_1049"
    INDEX 01 00:17:70
  TRACK 21 AUDIO
    TITLE "0:"
    INDEX 01 00:19:09
  TRACK 22 AUDIO
    TITLE "5:cjc082_1050"
    INDEX 01 00:19:60
  TRACK 23 AUDIO
    TITLE "0:"
    INDEX 01 00:21:06
  TRACK 24 AUDIO
    TITLE "6:cjc082_1051"
    INDEX 01 00:21:51
  TRACK 25 AUDIO
    TITLE "0:"
    INDEX 01 00:23:01
  TRACK 26 AUDIO
    TITLE "5:cjc082_1052"
    INDEX 01 00:23:46
  TRACK 27 AUDIO
    TITLE "0:"
    INDEX 01 00:24:63
  TRACK 28 AUDIO
    TITLE "6:cjc082_1053"
    INDEX 01 00:25:41
  TRACK 29 AUDIO
    TITLE "0:"
    INDEX 01 00:26:60
  TRACK 30 AUDIO
    TITLE "5:cjc082_1054"
    INDEX 01 00:27:34
  TRACK 31 AUDIO
    TITLE "0:"
    INDEX 01 00:28:45
  TRACK 32 AUDIO
    TITLE "6:cjc082_1055"
    INDEX 01 00:29:21
  TRACK 33 AUDIO
    TITLE "0:"
    INDEX 01 00:30:40
  TRACK 34 AUDIO
    TITLE "5:cjc082_1056"
    INDEX 01 00:31:12
  TRACK 35 AUDIO
    TITLE "0:"
    INDEX 01 00:32:50
  TRACK 36 AUDIO
    TITLE "6:cjc082_1057"
    INDEX 01 00:33:30
  TRACK 37 AUDIO
    TITLE "0:"
    INDEX 01 00:36:52
  TRACK 38 AUDIO
    TITLE "5:cjc082_1058"
    INDEX 01 00:37:26
  TRACK 39 AUDIO
    TITLE "0:"
    INDEX 01 00:38:43
  TRACK 40 AUDIO
    TITLE "6:cjc082_1059"
    INDEX 01 00:39:15
  TRACK 41 AUDIO
    TITLE "0:"
    INDEX 01 00:43:03
  TRACK 42 AUDIO
    TITLE "5:cjc082_1060"
    INDEX 01 00:43:52
  TRACK 43 AUDIO
    TITLE "0:"
    INDEX 01 00:45:04
  TRACK 44 AUDIO
    TITLE "6:cjc082_1061"
    INDEX 01 00:45:51
  TRACK 45 AUDIO
    TITLE "0:"
    INDEX 01 00:46:62
  TRACK 46 AUDIO
    TITLE "5:cjc082_1062"
    INDEX 01 00:47:32
  TRACK 47 AUDIO
    TITLE "0:"
    INDEX 01 00:48:63
  TRACK 48 AUDIO
    TITLE "6:cjc082_1063"
    INDEX 01 00:49:37
  TRACK 49 AUDIO
    TITLE "0:"
    INDEX 01 00:51:07
  TRACK 50 AUDIO
    TITLE "5:cjc082_1064"
    INDEX 01 00:51:52
  TRACK 51 AUDIO
    TITLE "0:"
    INDEX 01 00:53:06
  TRACK 52 AUDIO
    TITLE "6:cjc082_1065"
    INDEX 01 00:53:62
  TRACK 53 AUDIO
    TITLE "0:"
    INDEX 01 00:55:34
  TRACK 54 AUDIO
    TITLE "5:cjc082_1066"
    INDEX 01 00:56:08
  TRACK 55 AUDIO
    TITLE "0:"
    INDEX 01 00:57:21
  TRACK 56 AUDIO
    TITLE "6:cjc082_1067"
    INDEX 01 00:57:70
  TRACK 57 AUDIO
    TITLE "0:"
    INDEX 01 01:01:36
  TRACK 58 AUDIO
    TITLE "7:cjc082_1068"
    INDEX 01 01:03:00
  TRACK 59 AUDIO
    TITLE "0:"
    INDEX 01 01:15:66
